<svg width="25" height="26" viewBox="0 0 25 26" fill="none" xmlns="http://www.w3.org/2000/svg">
<path d="M8.61124 14.8558C7.31879 14.3142 5.85918 14.3361 4.58368 14.9164C3.30759 15.4019 2.27995 16.3795 1.73162 17.6298C1.69762 17.7215 1.67571 17.7977 1.65174 17.8803C1.41148 18.743 1.39018 19.652 1.59029 20.5248C1.64601 20.7725 1.67509 21.0254 1.67755 21.2792C1.65543 21.7739 1.33426 22.1051 0.851684 22.5455C0.541163 22.738 0.296805 23.0203 0.150561 23.355C0.00431164 23.6897 -0.0366513 24.0608 0.0331936 24.4193C0.229829 24.9381 0.652988 25.3383 1.18207 25.5059C1.84324 25.7458 2.54336 25.8609 3.24674 25.8453C4.54128 25.8486 5.81773 25.5407 6.96849 24.948C9.73612 23.4798 11.9751 19.8569 10.7593 17.0181C10.3289 16.0609 9.5655 15.2926 8.61121 14.8561L8.61124 14.8558Z" fill="#E5919C"/>
<path d="M9.07617 13.0755C9.18002 13.1073 9.28141 13.1472 9.37891 13.1947C10.7435 13.8219 11.833 14.9245 12.444 16.2964C12.5822 16.6086 12.6869 16.9347 12.7559 17.269L16.2703 13.7176L12.3337 9.78125L9.07617 13.0755Z" fill="#E5919C"/>
<path d="M24.1799 1.76811C23.659 1.24396 22.9506 0.949219 22.2115 0.949219C21.4725 0.949219 20.7642 1.24397 20.2433 1.76811L13.627 8.46682L17.5635 12.4034L24.1799 5.7047C24.7041 5.18382 24.9988 4.47555 24.9988 3.73651C24.9988 2.99748 24.7041 2.28901 24.1799 1.76811Z" fill="#E5919C"/>
</svg>
