<svg width="19" height="19" viewBox="0 0 19 19" fill="none" xmlns="http://www.w3.org/2000/svg">
<path fill-rule="evenodd" clip-rule="evenodd" d="M1.58333 9.5C1.58333 5.12775 5.12774 1.58334 9.5 1.58333C13.8723 1.58333 17.4167 5.12775 17.4167 9.5C17.4167 13.8723 13.8723 17.4167 9.5 17.4167C5.12775 17.4167 1.58333 13.8723 1.58333 9.5ZM0 9.5C0 4.2533 4.25329 0 9.5 0C14.7467 0 19 4.25329 19 9.5C19 14.7467 14.7467 19 9.5 19C4.25329 19 0 14.7467 0 9.5ZM9.26878 5.77358C8.95961 5.46442 8.45836 5.46442 8.14919 5.77358C7.84003 6.08275 7.84003 6.584 8.14919 6.89317L10.7561 9.50004L8.14919 12.1069C7.84003 12.4161 7.84003 12.9173 8.14919 13.2265C8.45836 13.5357 8.95961 13.5357 9.26878 13.2265L12.4354 10.0598L12.9952 9.50004L12.4354 8.94025L9.26878 5.77358Z" fill="#E5919C"/>
</svg>
