<svg width="14" height="14" viewBox="0 0 14 14" fill="none" xmlns="http://www.w3.org/2000/svg">
<path fill-rule="evenodd" clip-rule="evenodd" d="M7 12.9467C10.2843 12.9467 12.9467 10.2843 12.9467 7C12.9467 3.71572 10.2843 1.05329 7 1.05329C3.71572 1.05329 1.05329 3.71572 1.05329 7C1.05329 10.2843 3.71572 12.9467 7 12.9467ZM7 14C10.866 14 14 10.866 14 7C14 3.13401 10.866 0 7 0C3.13401 0 0 3.13401 0 7C0 10.866 3.13401 14 7 14Z" fill="white"/>
<path d="M5.83317 4.08203H4.6665V9.91536H5.83317" stroke="white" stroke-width="1.05329" stroke-linecap="round" stroke-linejoin="round"/>
<path d="M6.4165 7.28906H9.9165" stroke="white" stroke-width="1.05329" stroke-linecap="round" stroke-linejoin="round"/>
<path d="M8.1665 5.53906L9.9165 7.28906" stroke="white" stroke-width="1.05329" stroke-linecap="round" stroke-linejoin="round"/>
<path d="M8.1665 9.03906L9.9165 7.28906" stroke="white" stroke-width="1.05329" stroke-linecap="round" stroke-linejoin="round"/>
</svg>
